<svg version="1" xmlns="http://www.w3.org/2000/svg" width="206.667" height="206.667" viewBox="0 0 155.000000 155.000000"><path d="M59 1.35c0 .85-2.4 2.05-6 3.05-20.7 5.85-42.55 27.45-48.5 48.05-1 3.4-2.2 5.55-3.05 5.55C.25 58 0 61.25 0 77.5 0 93.95.25 97 1.45 97c.9 0 1.9 1.65 2.55 4.25 5 20.35 28 43.45 49 49.35 3.6 1 6 2.2 6 3.05 0 1.1 3.5 1.35 18.5 1.35s18.5-.25 18.5-1.35c0-.85 2.4-2.05 6-3.05 20.7-5.85 43.35-28.45 48.95-48.85.75-2.7 1.9-4.75 2.7-4.75 1.1 0 1.35-3.65 1.35-19.5 0-16.45-.25-19.5-1.45-19.5-.9 0-1.9-1.65-2.55-4.25-5.1-20.55-29.25-44.5-50.25-49.8C98 3.25 96 2.15 96 1.35 96 .25 92.5 0 77.5 0S59 .25 59 1.35zM95 42c5 2.7 2.85 13-2.7 13-4.05 0-6.3 1.8-6.3 5 0 3.15 2.25 5 6.1 5 3.55 0 5.9 2.85 5.9 7.15C98 76.5 95.3 80 91.95 80 86.2 80 86 80.65 86 98.95c0 19.95-.05 20.05-8.9 20.05-9.55 0-9.6-.05-9.65-19.45-.1-17.2-.25-17.75-4.6-19.95-3.6-1.8-3.5-12.45.15-14.3 3.3-1.65 5-4.1 5-7.3 0-5.45 3.1-12 6.85-14.55C78.75 40.8 91.05 39.9 95 42z"/></svg>