<svg version="1" xmlns="http://www.w3.org/2000/svg" width="260" height="260" viewBox="0 0 195.000000 195.000000"><path d="M61 13.2c-12.3 2.6-15.9 4.2-27.7 12.7C20.5 35 17.5 38.2 11.5 49.3c-4.9 8.9-5.2 9.2-8.3 8.9L0 57.9v55.2l3.2-.3c3.2-.3 3.4 0 8 8.7 4.9 9.1 11.6 17 21 24.5 5.3 4.2 17 9.1 28.7 12 16.9 4.1 24.6 3.6 38.3-2.6 8.9-4 18-5 22.8-2.4 1.4.7 8.4 7 15.5 14 14.5 14.2 16.9 15.5 27.1 14.8 5-.3 6.9-.9 9-2.8 3-2.8 5.4-7.8 5.4-11.2 0-6.9-2-9.9-16.4-24.3-17.9-18-18.8-20.3-14.5-37 4.2-16.3 3.5-36.9-1.6-48.3-2.9-6.4-12-19.5-16.7-23.9-7.5-7.1-21-16.2-27.1-18.2C86.3 10.7 76.1 10 61 13.2zm28.6 23.6c7.7 2.7 21.1 11.2 24.9 15.7 5 6.1 11.2 19.2 12.5 26.4 1.7 9.5.6 15.1-5.5 27.7-5.1 10.6-5.8 11.5-13.1 17.3C95.5 134.3 95 134.5 77 134.5c-14.8 0-15.7-.1-21-2.7-6.7-3.3-20.1-15.4-23.5-21.2-4.1-6.9-6.7-18.9-6.1-27.1 1-12.8 6.2-25.9 12.4-31.3C43 48.6 51.2 42.5 54 41c11-5.9 25.6-7.6 35.6-4.2z"/></svg>