<svg version="1" xmlns="http://www.w3.org/2000/svg" width="206.667" height="206.667" viewBox="0 0 155.000000 155.000000"><path d="M59 1.35c0 .85-2.4 2.05-6 3.05-20.7 5.85-42.55 27.45-48.5 48.05-1 3.4-2.2 5.55-3.05 5.55C.25 58 0 61.25 0 77.5 0 93.95.25 97 1.45 97c.9 0 1.9 1.65 2.55 4.25 5 20.35 28 43.45 49 49.35 3.6 1 6 2.2 6 3.05 0 1.1 3.5 1.35 18.5 1.35s18.5-.25 18.5-1.35c0-.85 2.4-2.05 6-3.05 20.7-5.85 43.35-28.45 48.95-48.85.75-2.7 1.9-4.75 2.7-4.75 1.1 0 1.35-3.65 1.35-19.5 0-16.45-.25-19.5-1.45-19.5-.9 0-1.9-1.65-2.55-4.25-5.1-20.55-29.25-44.5-50.25-49.8C98 3.25 96 2.15 96 1.35 96 .25 92.5 0 77.5 0S59 .25 59 1.35zm8.75 42.05c2.05.8 7.7 1.65 12.55 1.95 20.8 1.3 35.8 16.4 36.35 36.65.1 4.1.5 10.45.9 14.05 1.6 14.9-10.8 25.7-26.45 23.1-3.85-.65-9.35-1.15-12.3-1.15-10.8-.05-21.55-5.35-28.95-14.2-6.05-7.2-7.15-11.9-9.5-40.35C39.2 49.85 54.7 38.5 67.75 43.4z"/><path d="M73.75 56.1C52.3 61.05 53.9 81 76 84.5c12.1 1.95 16.65 8.05 8.95 12.05-6.1 3.1-11.3 1.55-17.25-5.25-3.25-3.7-6.55-4.25-9.05-1.45-2.55 2.8-2 4.8 2.5 9.65 12.3 13.4 38.85 7.7 38.85-8.25 0-8.8-2.8-11.15-18.55-15.75C71.95 72.75 70 71.65 70 69.1c0-5.5 10.45-5.85 17.3-.6 5.15 3.95 7.65 4.35 10.05 1.65 5.85-6.5-11.55-16.85-23.6-14.05z"/></svg>