<svg version="1" xmlns="http://www.w3.org/2000/svg" width="206.667" height="206.667" viewBox="0 0 155.000000 155.000000"><path d="M59 1.35c0 .85-2.4 2.05-6 3.05-20.7 5.85-42.55 27.45-48.5 48.05-1 3.4-2.2 5.55-3.05 5.55C.25 58 0 61.25 0 77.5 0 93.95.25 97 1.45 97c.9 0 1.9 1.65 2.55 4.25 5 20.35 28 43.45 49 49.35 3.6 1 6 2.2 6 3.05 0 1.1 3.5 1.35 18.5 1.35s18.5-.25 18.5-1.35c0-.85 2.4-2.05 6-3.05 20.7-5.85 43.35-28.45 48.95-48.85.75-2.7 1.9-4.75 2.7-4.75 1.1 0 1.35-3.65 1.35-19.5 0-16.45-.25-19.5-1.45-19.5-.9 0-1.9-1.65-2.55-4.25-5.1-20.55-29.25-44.5-50.25-49.8C98 3.25 96 2.15 96 1.35 96 .25 92.5 0 77.5 0S59 .25 59 1.35zm38.75 58.4c3.45 3.7 7 8 7.8 9.5 1 1.8 2.3 2.75 3.85 2.75 5.25 0 5.95 6.7 1 9.3-1.45.75-4.7 4.4-7.25 8.15-8.45 12.4-28.25 21.7-39.8 18.7-2.1-.55-6.25-1.5-9.15-2.05-12.85-2.6-19.6-11.9-7.7-10.65 12.2 1.3 17.55-3.35 10.9-9.55-3.35-3.1-7.4-11.05-7.95-15.65-.25-1.95-.95-4.15-1.55-4.85-2.2-2.7-.65-5.9 2.75-5.65 3.15.25 16.85 6.65 17.9 8.35 1.2 1.95 5.5.9 6.45-1.55C80.5 52 88.25 49.7 97.75 59.75z"/></svg>