<?xml version="1.0" standalone="no"?>
<!DOCTYPE svg PUBLIC "-//W3C//DTD SVG 20010904//EN"
 "http://www.w3.org/TR/2001/REC-SVG-20010904/DTD/svg10.dtd">
<svg version="1.0" xmlns="http://www.w3.org/2000/svg"
 width="155.000000pt" height="155.000000pt" viewBox="0 0 155.000000 155.000000"
 preserveAspectRatio="xMidYMid meet">
<metadata>
Created by potrace 1.10, written by Peter Selinger 2001-2011
</metadata>
<g transform="translate(0.000000,155.000000) scale(0.050000,-0.050000)"
fill="#000000" stroke="none">
<path d="M1180 3073 c0 -17 -48 -41 -120 -61 -414 -117 -851 -549 -970 -961
-20 -68 -44 -111 -61 -111 -24 0 -29 -65 -29 -390 0 -329 5 -390 29 -390 18 0
38 -33 51 -85 100 -407 560 -869 980 -987 72 -20 120 -44 120 -61 0 -22 70
-27 370 -27 300 0 370 5 370 27 0 17 48 41 120 61 414 117 867 569 979 977 15
54 38 95 54 95 22 0 27 73 27 390 0 329 -5 390 -29 390 -18 0 -38 33 -51 85
-102 411 -585 890 -1005 996 -55 14 -95 36 -95 52 0 22 -70 27 -370 27 -300 0
-370 -5 -370 -27z m720 -813 c100 -54 57 -260 -54 -260 -81 0 -126 -36 -126
-100 0 -63 45 -100 122 -100 71 0 118 -57 118 -143 0 -87 -54 -157 -121 -157
-115 0 -119 -13 -119 -379 0 -399 -1 -401 -178 -401 -191 0 -192 1 -193 389
-2 344 -5 355 -92 399 -72 36 -70 249 3 286 66 33 100 82 100 146 0 109 62
240 137 291 78 53 324 71 403 29z"/>
</g>
</svg>
