<?xml version="1.0" standalone="no"?>
<!DOCTYPE svg PUBLIC "-//W3C//DTD SVG 20010904//EN"
 "http://www.w3.org/TR/2001/REC-SVG-20010904/DTD/svg10.dtd">
<svg version="1.0" xmlns="http://www.w3.org/2000/svg"
 width="195.000000pt" height="195.000000pt" viewBox="0 0 195.000000 195.000000"
 preserveAspectRatio="xMidYMid meet">
<metadata>
Created by potrace 1.10, written by Peter Selinger 2001-2011
</metadata>
<g transform="translate(0.000000,195.000000) scale(0.100000,-0.100000)"
fill="#000000" stroke="none">
<path d="M610 1818 c-123 -26 -159 -42 -277 -127 -128 -91 -158 -123 -218
-234 -49 -89 -52 -92 -83 -89 l-32 3 0 -276 0 -276 32 3 c32 3 34 0 80 -87 49
-91 116 -170 210 -245 53 -42 170 -91 287 -120 169 -41 246 -36 383 26 89 40
180 50 228 24 14 -7 84 -70 155 -140 145 -142 169 -155 271 -148 50 3 69 9 90
28 30 28 54 78 54 112 0 69 -20 99 -164 243 -179 180 -188 203 -145 370 42
163 35 369 -16 483 -29 64 -120 195 -167 239 -75 71 -210 162 -271 182 -164
54 -266 61 -417 29z m286 -236 c77 -27 211 -112 249 -157 50 -61 112 -192 125
-264 17 -95 6 -151 -55 -277 -51 -106 -58 -115 -131 -173 -129 -104 -134 -106
-314 -106 -148 0 -157 1 -210 27 -67 33 -201 154 -235 212 -41 69 -67 189 -61
271 10 128 62 259 124 313 42 36 124 97 152 112 110 59 256 76 356 42z"/>
</g>
</svg>
