<?xml version="1.0" standalone="no"?>
<!DOCTYPE svg PUBLIC "-//W3C//DTD SVG 20010904//EN"
 "http://www.w3.org/TR/2001/REC-SVG-20010904/DTD/svg10.dtd">
<svg version="1.0" xmlns="http://www.w3.org/2000/svg"
 width="155.000000pt" height="155.000000pt" viewBox="0 0 155.000000 155.000000"
 preserveAspectRatio="xMidYMid meet">
<metadata>
Created by potrace 1.10, written by Peter Selinger 2001-2011
</metadata>
<g transform="translate(0.000000,155.000000) scale(0.050000,-0.050000)"
fill="#000000" stroke="none">
<path d="M1180 3073 c0 -17 -48 -41 -120 -61 -414 -117 -851 -549 -970 -961
-20 -68 -44 -111 -61 -111 -24 0 -29 -65 -29 -390 0 -329 5 -390 29 -390 18 0
38 -33 51 -85 100 -407 560 -869 980 -987 72 -20 120 -44 120 -61 0 -22 70
-27 370 -27 300 0 370 5 370 27 0 17 48 41 120 61 414 117 867 569 979 977 15
54 38 95 54 95 22 0 27 73 27 390 0 329 -5 390 -29 390 -18 0 -38 33 -51 85
-102 411 -585 890 -1005 996 -55 14 -95 36 -95 52 0 22 -70 27 -370 27 -300 0
-370 -5 -370 -27z m175 -841 c41 -16 154 -33 251 -39 416 -26 716 -328 727
-733 2 -82 10 -209 18 -281 32 -298 -216 -514 -529 -462 -77 13 -187 23 -246
23 -216 1 -431 107 -579 284 -121 144 -143 238 -190 807 -23 272 287 499 548
401z"/>
<path d="M1475 1978 c-429 -99 -397 -498 45 -568 242 -39 333 -161 179 -241
-122 -62 -226 -31 -345 105 -65 74 -131 85 -181 29 -51 -56 -40 -96 50 -193
246 -268 777 -154 777 165 0 176 -56 223 -371 315 -190 55 -229 77 -229 128 0
110 209 117 346 12 103 -79 153 -87 201 -33 117 130 -231 337 -472 281z"/>
</g>
</svg>
