<?xml version="1.0" standalone="no"?>
<!DOCTYPE svg PUBLIC "-//W3C//DTD SVG 20010904//EN"
 "http://www.w3.org/TR/2001/REC-SVG-20010904/DTD/svg10.dtd">
<svg version="1.0" xmlns="http://www.w3.org/2000/svg"
 width="155.000000pt" height="155.000000pt" viewBox="0 0 155.000000 155.000000"
 preserveAspectRatio="xMidYMid meet">
<metadata>
Created by potrace 1.10, written by Peter Selinger 2001-2011
</metadata>
<g transform="translate(0.000000,155.000000) scale(0.050000,-0.050000)"
fill="#000000" stroke="none">
<path d="M1180 3073 c0 -17 -48 -41 -120 -61 -414 -117 -851 -549 -970 -961
-20 -68 -44 -111 -61 -111 -24 0 -29 -65 -29 -390 0 -329 5 -390 29 -390 18 0
38 -33 51 -85 100 -407 560 -869 980 -987 72 -20 120 -44 120 -61 0 -22 70
-27 370 -27 300 0 370 5 370 27 0 17 48 41 120 61 414 117 867 569 979 977 15
54 38 95 54 95 22 0 27 73 27 390 0 329 -5 390 -29 390 -18 0 -38 33 -51 85
-102 411 -585 890 -1005 996 -55 14 -95 36 -95 52 0 22 -70 27 -370 27 -300 0
-370 -5 -370 -27z m775 -1168 c69 -74 140 -160 156 -190 20 -36 46 -55 77 -55
105 0 119 -134 20 -186 -29 -15 -94 -88 -145 -163 -169 -248 -565 -434 -796
-374 -42 11 -125 30 -183 41 -257 52 -392 238 -154 213 244 -26 351 67 218
191 -67 62 -148 221 -159 313 -5 39 -19 83 -31 97 -44 54 -13 118 55 113 63
-5 337 -133 358 -167 24 -39 110 -18 129 31 110 291 265 337 455 136z"/>
</g>
</svg>
